<svg width="17" height="18" viewBox="0 0 17 18" fill="none" xmlns="http://www.w3.org/2000/svg">
<path d="M1.25 17.9999C1.05109 17.9999 0.860322 17.9209 0.71967 17.7802C0.579018 17.6395 0.5 17.4488 0.5 17.2499V0.749872C0.500022 0.619544 0.534006 0.491471 0.5986 0.378277C0.663195 0.265083 0.756171 0.170674 0.868365 0.104357C0.980559 0.0380404 1.1081 0.00210363 1.23841 8.95819e-05C1.36872 -0.00192447 1.49731 0.0300537 1.6115 0.0928718L16.6115 8.34287C16.7291 8.40761 16.8271 8.50273 16.8954 8.6183C16.9637 8.73386 16.9998 8.86564 16.9998 8.99987C16.9998 9.13411 16.9637 9.26588 16.8954 9.38145C16.8271 9.49701 16.7291 9.59213 16.6115 9.65687L1.6115 17.9069C1.50076 17.9678 1.37641 17.9998 1.25 17.9999Z" fill="white"/>
</svg>
