<svg width="17" height="18" viewBox="0 0 17 18" fill="none" xmlns="http://www.w3.org/2000/svg">
<path d="M1.16553 17.9999C0.966615 17.9999 0.77585 17.9209 0.635197 17.7802C0.494545 17.6395 0.415527 17.4488 0.415527 17.2499V0.749872C0.41555 0.619544 0.449533 0.491471 0.514127 0.378277C0.578722 0.265083 0.671698 0.170674 0.783892 0.104357C0.896086 0.0380404 1.02362 0.00210363 1.15394 8.95819e-05C1.28425 -0.00192447 1.41284 0.0300537 1.52703 0.0928718L16.527 8.34287C16.6446 8.40761 16.7427 8.50273 16.811 8.6183C16.8793 8.73386 16.9153 8.86564 16.9153 8.99987C16.9153 9.13411 16.8793 9.26588 16.811 9.38145C16.7427 9.49701 16.6446 9.59213 16.527 9.65687L1.52703 17.9069C1.41629 17.9678 1.29194 17.9998 1.16553 17.9999Z" fill="white"/>
</svg>
