<svg width="56" height="22" viewBox="0 0 56 22" fill="none" xmlns="http://www.w3.org/2000/svg">
<path d="M0 2C0 0.89543 0.895431 0 2 0H53.2648C54.6184 0 55.5811 1.31652 55.1707 2.60641L52.6929 10.3936C52.5674 10.7881 52.5674 11.2119 52.6929 11.6064L55.1707 19.3936C55.5811 20.6835 54.6184 22 53.2648 22H2C0.89543 22 0 21.1046 0 20V2Z" fill="#0F79AF"/>
<path d="M9.676 15V8.124H7.144V6.684H14.008V8.124H11.476V15H9.676ZM16.4821 10.836C16.4821 11.78 16.6701 12.5 17.0461 12.996C17.4221 13.492 17.9701 13.74 18.6901 13.74C19.4101 13.74 19.9581 13.492 20.3341 12.996C20.7101 12.5 20.8981 11.78 20.8981 10.836C20.8981 9.892 20.7101 9.176 20.3341 8.688C19.9581 8.192 19.4101 7.944 18.6901 7.944C17.9701 7.944 17.4221 8.192 17.0461 8.688C16.6701 9.176 16.4821 9.892 16.4821 10.836ZM14.6341 10.836C14.6341 9.956 14.7901 9.188 15.1021 8.532C15.4221 7.876 15.8861 7.372 16.4941 7.02C17.1101 6.66 17.8421 6.48 18.6901 6.48C19.5141 6.48 20.2301 6.652 20.8381 6.996C21.4461 7.34 21.9141 7.84 22.2421 8.496C22.5781 9.144 22.7461 9.924 22.7461 10.836C22.7461 11.716 22.5861 12.484 22.2661 13.14C21.9541 13.796 21.4901 14.304 20.8741 14.664C20.2661 15.024 19.5381 15.204 18.6901 15.204C17.8661 15.204 17.1501 15.032 16.5421 14.688C15.9341 14.344 15.4621 13.844 15.1261 13.188C14.7981 12.532 14.6341 11.748 14.6341 10.836ZM26.1768 11.964V15H24.4248V6.684H27.6048C28.4688 6.684 29.1528 6.92 29.6568 7.392C30.1608 7.864 30.4128 8.508 30.4128 9.324C30.4128 10.14 30.1608 10.784 29.6568 11.256C29.1528 11.728 28.4688 11.964 27.6048 11.964H26.1768ZM26.1768 10.62H27.4008C27.8008 10.62 28.1048 10.512 28.3128 10.296C28.5288 10.072 28.6368 9.748 28.6368 9.324C28.6368 8.9 28.5288 8.58 28.3128 8.364C28.1048 8.14 27.8008 8.028 27.4008 8.028H26.1768V10.62ZM37.2872 15V8.436L35.1512 9.108V7.74L37.4912 6.684H39.0632V15H37.2872ZM44.5824 13.74C45.0704 13.74 45.4184 13.516 45.6264 13.068C45.8344 12.62 45.9384 11.872 45.9384 10.824C45.9384 9.784 45.8344 9.04 45.6264 8.592C45.4184 8.144 45.0704 7.92 44.5824 7.92C44.0944 7.92 43.7464 8.144 43.5384 8.592C43.3304 9.04 43.2264 9.784 43.2264 10.824C43.2264 11.872 43.3304 12.62 43.5384 13.068C43.7464 13.516 44.0944 13.74 44.5824 13.74ZM44.5824 15.18C43.5664 15.18 42.7864 14.804 42.2424 14.052C41.6984 13.3 41.4264 12.224 41.4264 10.824C41.4264 9.432 41.6984 8.36 42.2424 7.608C42.7944 6.856 43.5744 6.48 44.5824 6.48C45.5904 6.48 46.3664 6.856 46.9104 7.608C47.4624 8.36 47.7384 9.432 47.7384 10.824C47.7384 12.224 47.4664 13.3 46.9224 14.052C46.3784 14.804 45.5984 15.18 44.5824 15.18Z" fill="white"/>
</svg>
